<?xml version="1.0" encoding="UTF-8" standalone="no"?>
<!-- Generator: Adobe Illustrator 18.1.1, SVG Export Plug-In . SVG Version: 6.00 Build 0)  -->

<svg
   xmlns:dc="http://purl.org/dc/elements/1.1/"
   xmlns:cc="http://creativecommons.org/ns#"
   xmlns:rdf="http://www.w3.org/1999/02/22-rdf-syntax-ns#"
   xmlns:svg="http://www.w3.org/2000/svg"
   xmlns="http://www.w3.org/2000/svg"
   xmlns:sodipodi="http://sodipodi.sourceforge.net/DTD/sodipodi-0.dtd"
   xmlns:inkscape="http://www.inkscape.org/namespaces/inkscape"
   version="1.1"
   id="Capa_1"
   x="0px"
   y="0px"
   viewBox="0 0 612 612"
   style="enable-background:new 0 0 612 612;"
   xml:space="preserve"
   width="512px"
   height="512px"
   inkscape:version="0.91 r13725"
   sodipodi:docname="contact-avatar.svg"><metadata
     id="metadata45"><rdf:RDF><cc:Work
         rdf:about=""><dc:format>image/svg+xml</dc:format><dc:type
           rdf:resource="http://purl.org/dc/dcmitype/StillImage" /><dc:title></dc:title></cc:Work></rdf:RDF></metadata><defs
     id="defs43" /><sodipodi:namedview
     pagecolor="#ffffff"
     bordercolor="#666666"
     borderopacity="1"
     objecttolerance="10"
     gridtolerance="10"
     guidetolerance="10"
     inkscape:pageopacity="0"
     inkscape:pageshadow="2"
     inkscape:window-width="928"
     inkscape:window-height="718"
     id="namedview41"
     showgrid="false"
     inkscape:zoom="0.4609375"
     inkscape:cx="-110.64407"
     inkscape:cy="256"
     inkscape:window-x="0"
     inkscape:window-y="0"
     inkscape:window-maximized="0"
     inkscape:current-layer="g5" /><g
     id="g3"><g
       id="g5"><path
         d="M306.001,325.988c90.563-0.005,123.147-90.682,131.679-165.167C448.188,69.06,404.799,0,306.001,0    c-98.782,0-142.195,69.055-131.679,160.82C182.862,235.304,215.436,325.995,306.001,325.988z"
         fill="#1da1e1"
         id="path7"
         style="fill:#ffffff;fill-opacity:1" /><path
         d="M550.981,541.908c-0.99-28.904-4.377-57.939-9.421-86.393c-6.111-34.469-13.889-85.002-43.983-107.465    c-17.404-12.988-39.941-17.249-59.865-25.081c-9.697-3.81-18.384-7.594-26.537-11.901c-27.518,30.176-63.4,45.962-105.186,45.964    c-41.774,0-77.652-15.786-105.167-45.964c-8.153,4.308-16.84,8.093-26.537,11.901c-19.924,7.832-42.461,12.092-59.863,25.081    c-30.096,22.463-37.873,72.996-43.983,107.465c-5.045,28.454-8.433,57.489-9.422,86.393    c-0.766,22.387,10.288,25.525,29.017,32.284c23.453,8.458,47.666,14.737,72.041,19.884c47.077,9.941,95.603,17.582,143.921,17.924    c48.318-0.343,96.844-7.983,143.921-17.924c24.375-5.145,48.59-11.424,72.041-19.884    C540.694,567.435,551.747,564.297,550.981,541.908z"
         fill="#1da1e1"
         id="path9"
         style="fill:#ffffff;fill-opacity:1" /></g></g><g
     id="g11" /><g
     id="g13" /><g
     id="g15" /><g
     id="g17" /><g
     id="g19" /><g
     id="g21" /><g
     id="g23" /><g
     id="g25" /><g
     id="g27" /><g
     id="g29" /><g
     id="g31" /><g
     id="g33" /><g
     id="g35" /><g
     id="g37" /><g
     id="g39" /></svg>