<?xml version="1.0" encoding="UTF-8" standalone="no"?>
<!-- Generated by IcoMoon.io -->

<svg
   xmlns:dc="http://purl.org/dc/elements/1.1/"
   xmlns:cc="http://creativecommons.org/ns#"
   xmlns:rdf="http://www.w3.org/1999/02/22-rdf-syntax-ns#"
   xmlns:svg="http://www.w3.org/2000/svg"
   xmlns="http://www.w3.org/2000/svg"
   xmlns:sodipodi="http://sodipodi.sourceforge.net/DTD/sodipodi-0.dtd"
   xmlns:inkscape="http://www.inkscape.org/namespaces/inkscape"
   version="1.1"
   width="671.63385"
   height="626.98303"
   viewBox="0 0 20.988558 19.59322"
   id="svg2"
   inkscape:version="0.91 r13725"
   sodipodi:docname="customize.svg">
  <metadata
     id="metadata16">
    <rdf:RDF>
      <cc:Work
         rdf:about="">
        <dc:format>image/svg+xml</dc:format>
        <dc:type
           rdf:resource="http://purl.org/dc/dcmitype/StillImage" />
        <dc:title />
      </cc:Work>
    </rdf:RDF>
  </metadata>
  <defs
     id="defs14" />
  <sodipodi:namedview
     pagecolor="#ffffff"
     bordercolor="#666666"
     borderopacity="1"
     objecttolerance="10"
     gridtolerance="10"
     guidetolerance="10"
     inkscape:pageopacity="0"
     inkscape:pageshadow="2"
     inkscape:window-width="880"
     inkscape:window-height="733"
     id="namedview12"
     showgrid="false"
     inkscape:zoom="0.4609375"
     inkscape:cx="236.38224"
     inkscape:cy="256"
     inkscape:window-x="367"
     inkscape:window-y="171"
     inkscape:window-maximized="0"
     inkscape:current-layer="svg2" />
  <g
     id="g3380">
    <ellipse
       style="opacity:1;fill:#3cb6b6;fill-opacity:1;fill-rule:evenodd;stroke:#000000;stroke-width:0;stroke-miterlimit:4;stroke-dasharray:none;stroke-opacity:1"
       id="path3350"
       cx="10.474566"
       cy="9.7235146"
       rx="8.5084648"
       ry="8.1694956" />
    <g
       id="g4152"
       transform="matrix(0.49510599,0,0,0.47538143,6.5137185,5.9204631)"
       style="fill:#800000">
      <path
         style="fill:#ffffff;fill-opacity:1"
         inkscape:connector-curvature="0"
         d="M 12,7 12,5 10.8,4.6 C 10.7,4.3 10.6,3.9 10.4,3.6 L 11,2.4 9.5,1.1 8.4,1.6 C 8.1,1.4 7.8,1.3 7.4,1.2 L 7,0 5,0 4.6,1.2 C 4.3,1.3 3.9,1.4 3.6,1.6 L 2.5,1.1 1.1,2.5 1.7,3.7 C 1.5,4 1.4,4.3 1.3,4.7 L 0,5 0,7 1.2,7.4 c 0.1,0.3 0.2,0.7 0.4,1 l -0.5,1.1 1.4,1.4 1.2,-0.6 c 0.3,0.2 0.6,0.3 1,0.4 L 5,12 7,12 7.4,10.8 c 0.3,-0.1 0.7,-0.2 1,-0.4 L 9.6,11 11,9.6 10.4,8.4 c 0.2,-0.3 0.3,-0.6 0.4,-1 L 12,7 Z M 3,6 C 3,4.3 4.3,3 6,3 7.7,3 9,4.3 9,6 9,7.7 7.7,9 6,9 4.3,9 3,7.7 3,6 Z"
         id="path4" />
      <path
         style="fill:#ffffff;fill-opacity:1"
         inkscape:connector-curvature="0"
         d="M 7.5,6 C 7.5,6.828 6.828,7.5 6,7.5 5.172,7.5 4.5,6.828 4.5,6 4.5,5.172 5.172,4.5 6,4.5 6.828,4.5 7.5,5.172 7.5,6 Z"
         id="path6" />
      <path
         style="fill:#ffffff;fill-opacity:1"
         inkscape:connector-curvature="0"
         d="M 16,3 16,2 15.4,2 C 15.4,1.8 15.3,1.6 15.2,1.5 L 15.6,1.1 14.9,0.4 14.5,0.8 C 14.3,0.7 14.2,0.6 14,0.6 L 14,0 13,0 13,0.6 c -0.2,0 -0.4,0.1 -0.5,0.2 L 12.1,0.4 11.4,1.1 11.8,1.5 C 11.7,1.7 11.6,1.8 11.6,2 l -0.6,0 0,1 0.6,0 c 0,0.2 0.1,0.4 0.2,0.5 l -0.4,0.4 0.7,0.7 0.4,-0.4 c 0.2,0.1 0.3,0.2 0.5,0.2 l 0,0.6 1,0 0,-0.6 c 0.2,0 0.4,-0.1 0.5,-0.2 L 14.9,4.6 15.6,3.9 15.2,3.5 C 15.3,3.3 15.4,3.2 15.4,3 L 16,3 Z m -2.5,0.5 c -0.6,0 -1,-0.4 -1,-1 0,-0.6 0.4,-1 1,-1 0.6,0 1,0.4 1,1 0,0.6 -0.4,1 -1,1 z"
         id="path8" />
      <path
         style="fill:#ffffff;fill-opacity:1"
         inkscape:connector-curvature="0"
         d="M 15.4,11.8 C 15.3,11.5 15.2,11.2 15,10.9 L 15.3,10.3 14.6,9.6 14.1,10 C 13.8,9.8 13.5,9.7 13.2,9.6 L 13,9 12,9 11.8,9.6 C 11.5,9.7 11.2,9.8 10.9,10 L 10.3,9.7 9.6,10.4 9.9,11 C 9.7,11.3 9.6,11.6 9.5,11.9 L 9,12 l 0,1 0.6,0.2 c 0.1,0.3 0.2,0.6 0.4,0.9 l -0.3,0.6 0.7,0.7 0.6,-0.3 c 0.3,0.2 0.6,0.3 0.9,0.4 l 0.1,0.5 1,0 0.2,-0.6 c 0.3,-0.1 0.6,-0.2 0.9,-0.4 l 0.6,0.3 0.7,-0.7 -0.4,-0.5 c 0.2,-0.3 0.3,-0.6 0.4,-0.9 L 16,13 16,12 15.4,11.8 Z M 12.5,14 C 11.7,14 11,13.3 11,12.5 11,11.7 11.7,11 12.5,11 c 0.8,0 1.5,0.7 1.5,1.5 0,0.8 -0.7,1.5 -1.5,1.5 z"
         id="path10" />
    </g>
  </g>
</svg>
