<?xml version="1.0" encoding="UTF-8" standalone="no"?>
<!-- Generator: Adobe Illustrator 16.0.0, SVG Export Plug-In . SVG Version: 6.00 Build 0)  -->

<svg
   xmlns:dc="http://purl.org/dc/elements/1.1/"
   xmlns:cc="http://creativecommons.org/ns#"
   xmlns:rdf="http://www.w3.org/1999/02/22-rdf-syntax-ns#"
   xmlns:svg="http://www.w3.org/2000/svg"
   xmlns="http://www.w3.org/2000/svg"
   xmlns:sodipodi="http://sodipodi.sourceforge.net/DTD/sodipodi-0.dtd"
   xmlns:inkscape="http://www.inkscape.org/namespaces/inkscape"
   version="1.1"
   id="Capa_1"
   x="0px"
   y="0px"
   width="671.63385"
   height="626.98303"
   viewBox="0 0 781.03015 729.10779"
   xml:space="preserve"
   inkscape:version="0.91 r13725"
   sodipodi:docname="layouts.svg"><metadata
     id="metadata65"><rdf:RDF><cc:Work
         rdf:about=""><dc:format>image/svg+xml</dc:format><dc:type
           rdf:resource="http://purl.org/dc/dcmitype/StillImage" /><dc:title /></cc:Work></rdf:RDF></metadata><defs
     id="defs63" /><sodipodi:namedview
     pagecolor="#ffffff"
     bordercolor="#666666"
     borderopacity="1"
     objecttolerance="10"
     gridtolerance="10"
     guidetolerance="10"
     inkscape:pageopacity="0"
     inkscape:pageshadow="2"
     inkscape:window-width="941"
     inkscape:window-height="1008"
     id="namedview61"
     showgrid="false"
     showguides="true"
     inkscape:guide-bbox="true"
     inkscape:zoom="0.4609375"
     inkscape:cx="378.68093"
     inkscape:cy="256"
     inkscape:window-x="269"
     inkscape:window-y="62"
     inkscape:window-maximized="0"
     inkscape:current-layer="g5" /><g
     id="g3"
     transform="translate(0,133.71179)"><g
       id="g5"><g
         id="g3512"><ellipse
           ry="304.00546"
           rx="316.61926"
           cy="229.52098"
           cx="387.45612"
           id="path4195"
           style="opacity:1;fill:#ec768c;fill-opacity:1;fill-rule:evenodd;stroke:#000000;stroke-width:0;stroke-miterlimit:4;stroke-dasharray:none;stroke-opacity:1" /><g
           transform="matrix(0.84169867,0,0,0.86348037,59.045445,27.998383)"
           id="g3462"><g
             id="g7"
             style="fill:#ffffff;fill-opacity:1"
             transform="matrix(0.62081949,0,0,0.62075881,205.35934,48.585454)"><path
               d="M 427.497,17.741 C 422.061,12.25 415.69,7.958 408.561,4.983 401.432,2.009 393.899,0.5 386.174,0.5 l -263.508,0 c -32.059,0 -58.14,26.082 -58.14,58.14 l 0,478.116 c 0,32.059 26.082,58.14 58.14,58.14 l 350.063,0 c 32.059,0 58.141,-26.081 58.141,-58.14 l 0,-390.662 c 0,-15.416 -5.971,-29.94 -16.816,-40.898 L 427.497,17.741 Z m 52.052,113.493 -63.637,0 c -4.09,0 -7.934,-1.593 -10.824,-4.485 -2.889,-2.893 -4.479,-6.737 -4.477,-10.826 l 0.047,-64.399 78.891,79.71 z m 8.481,405.523 c 0,8.449 -6.85,15.3 -15.301,15.3 l -350.063,0 c -8.45,0 -15.3,-6.851 -15.3,-15.3 l 0,-478.117 c 0,-8.45 6.85,-15.3 15.3,-15.3 l 235.159,0 -0.053,72.552 c -0.012,15.538 6.031,30.147 17.016,41.139 10.982,10.991 25.586,17.043 41.125,17.043 l 72.117,0 0,362.683 z"
               id="path9"
               style="fill:#ffffff;fill-opacity:1"
               inkscape:connector-curvature="0" /><path
               d="m 472.729,595.396 -350.063,0 c -32.334,0 -58.64,-26.306 -58.64,-58.64 l 0,-478.116 C 64.026,26.306 90.332,0 122.666,0 l 263.508,0 c 7.791,0 15.388,1.521 22.579,4.521 7.191,3.001 13.617,7.331 19.099,12.868 l 86.557,87.454 c 10.938,11.051 16.961,25.7 16.961,41.25 l 0,390.662 c 0,32.335 -26.306,58.641 -58.641,58.641 z M 122.666,1 C 90.883,1 65.026,26.857 65.026,58.64 l 0,478.116 c 0,31.782 25.857,57.64 57.64,57.64 l 350.063,0 c 31.783,0 57.641,-25.857 57.641,-57.64 l 0,-390.662 c 0,-15.285 -5.921,-29.685 -16.672,-40.547 L 427.141,18.093 C 421.753,12.65 415.437,8.395 408.369,5.445 401.299,2.495 393.833,1 386.174,1 L 122.666,1 Z m 350.063,551.557 -350.063,0 c -8.712,0 -15.8,-7.088 -15.8,-15.8 l 0,-478.117 c 0,-8.712 7.088,-15.8 15.8,-15.8 l 235.659,0 0,0.5 -0.053,72.552 c -0.012,15.404 5.979,29.888 16.869,40.785 10.888,10.896 25.367,16.897 40.771,16.897 l 72.617,0 0,363.183 c 10e-4,8.712 -7.087,15.8 -15.8,15.8 z M 122.666,43.84 c -8.161,0 -14.8,6.64 -14.8,14.8 l 0,478.117 c 0,8.161 6.639,14.8 14.8,14.8 l 350.063,0 c 8.161,0 14.801,-6.639 14.801,-14.8 l 0,-362.183 -71.617,0 c -15.671,0 -30.402,-6.105 -41.479,-17.19 -11.079,-11.086 -17.174,-25.821 -17.162,-41.493 l 0.053,-72.052 -234.659,0 z m 358.082,87.894 -64.835,0 c -4.223,0 -8.192,-1.645 -11.178,-4.631 -2.983,-2.988 -4.625,-6.958 -4.623,-11.18 l 0.048,-65.614 80.588,81.425 z m -79.59,-78.995 -0.046,63.185 c -0.002,3.955 1.536,7.674 4.33,10.472 2.797,2.798 6.516,4.338 10.471,4.338 l 62.438,0 -77.193,-77.995 z"
               id="path11"
               style="fill:#ffffff;fill-opacity:1"
               inkscape:connector-curvature="0" /></g><g
             id="g13"
             transform="matrix(0.69697469,0,0,0.62075881,200.48343,48.585454)"
             style="fill:#ffffff;fill-opacity:1"><path
               d="m 166.116,149.816 131.583,0 c 11.829,0 21.419,-9.59 21.419,-21.42 0,-11.83 -9.59,-21.42 -21.419,-21.42 l -131.583,0 c -11.83,0 -21.42,9.59 -21.42,21.42 0,11.83 9.59,21.42 21.42,21.42 z"
               id="path15"
               inkscape:connector-curvature="0"
               style="fill:#ffffff;fill-opacity:1" /><path
               d="m 297.699,150.316 -131.583,0 c -12.087,0 -21.92,-9.833 -21.92,-21.92 0,-12.087 9.833,-21.92 21.92,-21.92 l 131.583,0 c 12.086,0 21.919,9.833 21.919,21.92 0,12.087 -9.833,21.92 -21.919,21.92 z m -131.583,-42.84 c -11.535,0 -20.92,9.385 -20.92,20.92 0,11.536 9.385,20.92 20.92,20.92 l 131.583,0 c 11.535,0 20.919,-9.385 20.919,-20.92 0,-11.535 -9.384,-20.92 -20.919,-20.92 l -131.583,0 z"
               id="path17"
               inkscape:connector-curvature="0"
               style="fill:#ffffff;fill-opacity:1" /></g><g
             id="g19"
             transform="matrix(0.69697469,0,0,0.62075881,200.48343,48.585454)"
             style="fill:#ffffff;fill-opacity:1"><path
               d="m 356.209,411.92 -190.093,0 c -11.83,0 -21.42,9.59 -21.42,21.42 0,11.83 9.59,21.42 21.42,21.42 l 190.093,0 c 11.83,0 21.42,-9.59 21.42,-21.42 0,-11.83 -9.589,-21.42 -21.42,-21.42 z"
               id="path21"
               inkscape:connector-curvature="0"
               style="fill:#ffffff;fill-opacity:1" /><path
               d="m 356.209,455.26 -190.093,0 c -12.087,0 -21.92,-9.833 -21.92,-21.92 0,-12.087 9.833,-21.92 21.92,-21.92 l 190.093,0 c 12.087,0 21.92,9.833 21.92,21.92 0,12.087 -9.833,21.92 -21.92,21.92 z M 166.116,412.42 c -11.535,0 -20.92,9.385 -20.92,20.92 0,11.535 9.385,20.92 20.92,20.92 l 190.093,0 c 11.535,0 20.92,-9.385 20.92,-20.92 0,-11.535 -9.385,-20.92 -20.92,-20.92 l -190.093,0 z"
               id="path23"
               inkscape:connector-curvature="0"
               style="fill:#ffffff;fill-opacity:1" /></g><g
             style="fill:#ffffff;fill-opacity:1"
             id="g25"
             transform="matrix(0.69697469,0,0,0.62075881,200.48343,48.585454)"><path
               d="m 144.696,280.868 c 0,11.83 7.00158,21.42 15.63857,21.42 l 193.92334,0 c 8.63698,0 15.63857,-9.59 15.63857,-21.42 0,-11.83 -7.00159,-21.42 -15.63857,-21.42 l -193.92334,0 c -8.63699,0 -15.63857,9.59 -15.63857,21.42 z"
               id="path27"
               inkscape:connector-curvature="0"
               style="fill:#ffffff;fill-opacity:1" /></g><g
             style="fill:#ffffff;fill-opacity:1"
             transform="matrix(0.69697469,0,0,0.62075881,198.72505,-46.946053)"
             id="g4197"><path
               style="fill:#ffffff;fill-opacity:1"
               inkscape:connector-curvature="0"
               id="path4199"
               d="m 356.209,411.92 -190.093,0 c -11.83,0 -21.42,9.59 -21.42,21.42 0,11.83 9.59,21.42 21.42,21.42 l 190.093,0 c 11.83,0 21.42,-9.59 21.42,-21.42 0,-11.83 -9.589,-21.42 -21.42,-21.42 z" /><path
               style="fill:#ffffff;fill-opacity:1"
               inkscape:connector-curvature="0"
               id="path4201"
               d="m 356.209,455.26 -190.093,0 c -12.087,0 -21.92,-9.833 -21.92,-21.92 0,-12.087 9.833,-21.92 21.92,-21.92 l 190.093,0 c 12.087,0 21.92,9.833 21.92,21.92 0,12.087 -9.833,21.92 -21.92,21.92 z M 166.116,412.42 c -11.535,0 -20.92,9.385 -20.92,20.92 0,11.535 9.385,20.92 20.92,20.92 l 190.093,0 c 11.535,0 20.92,-9.385 20.92,-20.92 0,-11.535 -9.385,-20.92 -20.92,-20.92 l -190.093,0 z" /></g></g></g></g></g><g
     id="g31"
     transform="translate(0,133.71179)" /><g
     id="g33"
     transform="translate(0,133.71179)" /><g
     id="g35"
     transform="translate(0,133.71179)" /><g
     id="g37"
     transform="translate(0,133.71179)" /><g
     id="g39"
     transform="translate(0,133.71179)" /><g
     id="g41"
     transform="translate(0,133.71179)" /><g
     id="g43"
     transform="translate(0,133.71179)" /><g
     id="g45"
     transform="translate(0,133.71179)" /><g
     id="g47"
     transform="translate(0,133.71179)" /><g
     id="g49"
     transform="translate(0,133.71179)" /><g
     id="g51"
     transform="translate(0,133.71179)" /><g
     id="g53"
     transform="translate(0,133.71179)" /><g
     id="g55"
     transform="translate(0,133.71179)" /><g
     id="g57"
     transform="translate(0,133.71179)" /><g
     id="g59"
     transform="translate(0,133.71179)" /></svg>