<?xml version="1.0" encoding="UTF-8" standalone="no"?>
<!-- Generator: Adobe Illustrator 16.0.0, SVG Export Plug-In . SVG Version: 6.00 Build 0)  -->

<svg
   xmlns:dc="http://purl.org/dc/elements/1.1/"
   xmlns:cc="http://creativecommons.org/ns#"
   xmlns:rdf="http://www.w3.org/1999/02/22-rdf-syntax-ns#"
   xmlns:svg="http://www.w3.org/2000/svg"
   xmlns="http://www.w3.org/2000/svg"
   xmlns:sodipodi="http://sodipodi.sourceforge.net/DTD/sodipodi-0.dtd"
   xmlns:inkscape="http://www.inkscape.org/namespaces/inkscape"
   version="1.1"
   id="Capa_1"
   x="0px"
   y="0px"
   width="671.63385"
   height="626.98303"
   viewBox="0 0 719.08898 671.28208"
   xml:space="preserve"
   inkscape:version="0.91 r13725"
   sodipodi:docname="responsive.svg"><metadata
     id="metadata45"><rdf:RDF><cc:Work
         rdf:about=""><dc:format>image/svg+xml</dc:format><dc:type
           rdf:resource="http://purl.org/dc/dcmitype/StillImage" /><dc:title /></cc:Work></rdf:RDF></metadata><defs
     id="defs43" /><sodipodi:namedview
     pagecolor="#ffffff"
     bordercolor="#666666"
     borderopacity="1"
     objecttolerance="10"
     gridtolerance="10"
     guidetolerance="10"
     inkscape:pageopacity="0"
     inkscape:pageshadow="2"
     inkscape:window-width="1056"
     inkscape:window-height="892"
     id="namedview41"
     showgrid="false"
     showguides="true"
     inkscape:guide-bbox="true"
     inkscape:zoom="0.4609375"
     inkscape:cx="290.23647"
     inkscape:cy="138.18773"
     inkscape:window-x="880"
     inkscape:window-y="117"
     inkscape:window-maximized="0"
     inkscape:current-layer="g3"
     fit-margin-top="0"
     fit-margin-left="0"
     fit-margin-right="0"
     fit-margin-bottom="0" /><g
     id="g3"
     transform="translate(18.582212,132.39835)"><g
       id="g3359"><ellipse
         ry="279.89523"
         rx="291.50867"
         cy="203.061"
         cx="339.74265"
         id="path4173"
         style="opacity:1;fill:#5bb8ff;fill-opacity:1;fill-rule:evenodd;stroke:#000000;stroke-width:0;stroke-miterlimit:4;stroke-dasharray:none;stroke-opacity:1" /><g
         transform="matrix(0.69506871,0,0,0.67835444,628.73666,40.767212)"
         style="fill:#ffffff;fill-opacity:1"
         id="g5"><g
           style="fill:#ffffff;fill-opacity:1"
           transform="translate(-689.86562,-34.841696)"
           id="g4177"><path
             inkscape:connector-curvature="0"
             d="m 118.774,383.722 310.632,0 c 12.562,0 23.312,-4.47 32.257,-13.422 8.949,-8.949 13.422,-19.698 13.422,-32.258 l 0,-200.996 c 0,-12.563 -4.473,-23.313 -13.422,-32.261 -8.945,-8.947 -19.694,-13.418 -32.257,-13.418 l -310.632,0 c -12.562,0 -23.318,4.471 -32.264,13.418 -8.947,8.947 -13.418,19.698 -13.418,32.261 l 0,200.997 c 0,12.56 4.471,23.312 13.418,32.258 8.946,8.945 19.702,13.421 32.264,13.421 z m -9.14,-246.676 c 0,-2.474 0.905,-4.619 2.713,-6.423 1.811,-1.806 3.953,-2.712 6.427,-2.712 l 310.625,0 c 2.478,0 4.619,0.904 6.427,2.712 1.803,1.809 2.707,3.949 2.707,6.423 l 0,200.997 c 0,2.471 -0.904,4.617 -2.707,6.42 -1.808,1.808 -3.949,2.714 -6.427,2.714 l -310.628,0 c -2.475,0 -4.617,-0.903 -6.427,-2.714 -1.805,-1.81 -2.71,-3.949 -2.71,-6.42 l 0,-200.997 z"
             id="path7"
             style="fill:#ffffff;fill-opacity:1" /><path
             inkscape:connector-curvature="0"
             d="m 502.496,401.997 -456.815,0 -45.681,0 0,27.404 c 0,7.618 4.471,14.086 13.417,19.414 8.951,5.328 19.702,7.994 32.264,7.994 l 456.815,0 c 12.56,0 23.312,-2.666 32.258,-7.994 8.946,-5.328 13.422,-11.796 13.422,-19.414 l 0,-27.404 -45.68,0 z m -205.568,27.404 -45.681,0 c -3.042,0 -4.565,-1.526 -4.565,-4.568 0,-3.046 1.523,-4.575 4.565,-4.575 l 45.681,0 c 3.045,0 4.571,1.529 4.571,4.575 0,3.042 -1.526,4.568 -4.571,4.568 z"
             id="path9"
             style="fill:#ffffff;fill-opacity:1" /></g></g></g></g><g
     id="g11"
     transform="translate(18.582212,132.39835)" /><g
     id="g13"
     transform="translate(18.582212,132.39835)" /><g
     id="g15"
     transform="translate(18.582212,132.39835)" /><g
     id="g17"
     transform="translate(18.582212,132.39835)" /><g
     id="g19"
     transform="translate(18.582212,132.39835)" /><g
     id="g21"
     transform="translate(18.582212,132.39835)" /><g
     id="g23"
     transform="translate(18.582212,132.39835)" /><g
     id="g25"
     transform="translate(18.582212,132.39835)" /><g
     id="g27"
     transform="translate(18.582212,132.39835)" /><g
     id="g29"
     transform="translate(18.582212,132.39835)" /><g
     id="g31"
     transform="translate(18.582212,132.39835)" /><g
     id="g33"
     transform="translate(18.582212,132.39835)" /><g
     id="g35"
     transform="translate(18.582212,132.39835)" /><g
     id="g37"
     transform="translate(18.582212,132.39835)" /><g
     id="g39"
     transform="translate(18.582212,132.39835)" /></svg>