<?xml version="1.0" encoding="UTF-8" standalone="no"?>
<!-- Generator: Adobe Illustrator 16.0.0, SVG Export Plug-In . SVG Version: 6.00 Build 0)  -->

<svg
   xmlns:dc="http://purl.org/dc/elements/1.1/"
   xmlns:cc="http://creativecommons.org/ns#"
   xmlns:rdf="http://www.w3.org/1999/02/22-rdf-syntax-ns#"
   xmlns:svg="http://www.w3.org/2000/svg"
   xmlns="http://www.w3.org/2000/svg"
   xmlns:sodipodi="http://sodipodi.sourceforge.net/DTD/sodipodi-0.dtd"
   xmlns:inkscape="http://www.inkscape.org/namespaces/inkscape"
   version="1.1"
   id="Capa_1"
   x="0px"
   y="0px"
   width="671.63385"
   height="626.98303"
   viewBox="0 0 671.14324 626.52504"
   xml:space="preserve"
   inkscape:version="0.91 r13725"
   sodipodi:docname="retina.svg"><metadata
     id="metadata41"><rdf:RDF><cc:Work
         rdf:about=""><dc:format>image/svg+xml</dc:format><dc:type
           rdf:resource="http://purl.org/dc/dcmitype/StillImage" /><dc:title /></cc:Work></rdf:RDF></metadata><defs
     id="defs39" /><sodipodi:namedview
     pagecolor="#ffffff"
     bordercolor="#666666"
     borderopacity="1"
     objecttolerance="10"
     gridtolerance="10"
     guidetolerance="10"
     inkscape:pageopacity="0"
     inkscape:pageshadow="2"
     inkscape:window-width="958"
     inkscape:window-height="1008"
     id="namedview37"
     showgrid="false"
     inkscape:showpageshadow="false"
     borderlayer="true"
     inkscape:zoom="0.4609375"
     inkscape:cx="46.943207"
     inkscape:cy="256"
     inkscape:window-x="711"
     inkscape:window-y="89"
     inkscape:window-maximized="0"
     inkscape:current-layer="Capa_1" /><g
     id="g7"
     transform="translate(0,114.89904)" /><g
     id="g9"
     transform="translate(0,114.89904)" /><g
     id="g11"
     transform="translate(0,114.89904)" /><g
     id="g13"
     transform="translate(0,114.89904)" /><g
     id="g15"
     transform="translate(0,114.89904)" /><g
     id="g17"
     transform="translate(0,114.89904)" /><g
     id="g19"
     transform="translate(0,114.89904)" /><g
     id="g21"
     transform="translate(0,114.89904)" /><g
     id="g23"
     transform="translate(0,114.89904)" /><g
     id="g25"
     transform="translate(0,114.89904)" /><g
     id="g27"
     transform="translate(0,114.89904)" /><g
     id="g29"
     transform="translate(0,114.89904)" /><g
     id="g31"
     transform="translate(0,114.89904)" /><g
     id="g33"
     transform="translate(0,114.89904)" /><g
     id="g35"
     transform="translate(0,114.89904)" /><ellipse
     style="opacity:1;fill:#c183d6;fill-opacity:1;fill-rule:evenodd;stroke:#000000;stroke-width:0;stroke-miterlimit:4;stroke-dasharray:none;stroke-opacity:1"
     id="path4169"
     cx="334.94141"
     cy="313.26227"
     rx="272.07211"
     ry="261.23303" /><g
     id="g3"
     style="fill:#ffffff;fill-opacity:1"
     transform="matrix(0.50265957,0.4708487,-0.42147092,0.47463792,314.1736,71.394002)"><path
       d="m 506.199,242.968 -73.09,-73.089 c -3.614,-3.617 -7.898,-5.424 -12.848,-5.424 -4.948,0 -9.229,1.807 -12.847,5.424 -3.613,3.619 -5.424,7.902 -5.424,12.85 l 0,36.547 -109.635,0 0,-109.635 36.549,0 c 4.948,0 9.232,-1.809 12.847,-5.424 3.614,-3.617 5.421,-7.896 5.421,-12.847 0,-4.952 -1.807,-9.235 -5.421,-12.851 L 268.66,5.429 c -3.613,-3.616 -7.895,-5.424 -12.847,-5.424 -4.952,0 -9.232,1.809 -12.85,5.424 l -73.088,73.09 c -3.618,3.619 -5.424,7.902 -5.424,12.851 0,4.946 1.807,9.229 5.424,12.847 3.619,3.615 7.898,5.424 12.85,5.424 l 36.545,0 0,109.636 -109.634,0 0,-36.547 c 0,-4.952 -1.809,-9.234 -5.426,-12.85 -3.619,-3.617 -7.902,-5.424 -12.85,-5.424 -4.947,0 -9.23,1.807 -12.847,5.424 L 5.424,242.968 C 1.809,246.585 0,250.866 0,255.815 c 0,4.949 1.809,9.233 5.424,12.847 l 73.089,73.087 c 3.617,3.613 7.897,5.431 12.847,5.431 4.952,0 9.234,-1.817 12.85,-5.431 3.617,-3.61 5.426,-7.898 5.426,-12.847 l 0,-36.549 109.634,0 0,109.636 -36.542,0 c -4.952,0 -9.235,1.811 -12.851,5.424 -3.617,3.617 -5.424,7.898 -5.424,12.847 0,4.949 1.807,9.233 5.424,12.854 l 73.089,73.084 c 3.621,3.614 7.902,5.424 12.851,5.424 4.948,0 9.236,-1.81 12.847,-5.424 l 73.087,-73.084 c 3.621,-3.62 5.428,-7.905 5.428,-12.854 0,-4.949 -1.807,-9.229 -5.428,-12.847 -3.614,-3.613 -7.898,-5.424 -12.847,-5.424 l -36.542,0 0,-109.633 109.633,0 0,36.553 c 0,4.948 1.807,9.232 5.42,12.847 3.621,3.613 7.905,5.428 12.854,5.428 4.944,0 9.226,-1.814 12.847,-5.428 l 73.087,-73.091 c 3.617,-3.617 5.424,-7.901 5.424,-12.85 0,-4.949 -1.807,-9.23 -5.428,-12.847 z"
       id="path5"
       style="fill:#ffffff;fill-opacity:1"
       inkscape:connector-curvature="0" /></g></svg>