<?xml version="1.0" encoding="UTF-8" standalone="no"?>
<!-- Generator: Adobe Illustrator 19.0.0, SVG Export Plug-In . SVG Version: 6.00 Build 0)  -->

<svg
   xmlns:dc="http://purl.org/dc/elements/1.1/"
   xmlns:cc="http://creativecommons.org/ns#"
   xmlns:rdf="http://www.w3.org/1999/02/22-rdf-syntax-ns#"
   xmlns:svg="http://www.w3.org/2000/svg"
   xmlns="http://www.w3.org/2000/svg"
   xmlns:sodipodi="http://sodipodi.sourceforge.net/DTD/sodipodi-0.dtd"
   xmlns:inkscape="http://www.inkscape.org/namespaces/inkscape"
   version="1.1"
   id="Capa_1"
   x="0px"
   y="0px"
   viewBox="0 0 667.06884 622.72151"
   xml:space="preserve"
   width="671.63385"
   height="626.98303"
   inkscape:version="0.91 r13725"
   sodipodi:docname="support.svg"><metadata
     id="metadata51"><rdf:RDF><cc:Work
         rdf:about=""><dc:format>image/svg+xml</dc:format><dc:type
           rdf:resource="http://purl.org/dc/dcmitype/StillImage" /><dc:title /></cc:Work></rdf:RDF></metadata><defs
     id="defs49" /><sodipodi:namedview
     pagecolor="#ffffff"
     bordercolor="#666666"
     borderopacity="1"
     objecttolerance="10"
     gridtolerance="10"
     guidetolerance="10"
     inkscape:pageopacity="0"
     inkscape:pageshadow="2"
     inkscape:window-width="1439"
     inkscape:window-height="1008"
     id="namedview47"
     showgrid="false"
     showborder="true"
     inkscape:zoom="0.4609375"
     inkscape:cx="247.80108"
     inkscape:cy="532.94803"
     inkscape:window-x="-7"
     inkscape:window-y="0"
     inkscape:window-maximized="0"
     inkscape:current-layer="g5" /><g
     id="g17"
     transform="translate(0,114.2015)" /><g
     id="g19"
     transform="translate(0,114.2015)" /><g
     id="g21"
     transform="translate(0,114.2015)" /><g
     id="g23"
     transform="translate(0,114.2015)" /><g
     id="g25"
     transform="translate(0,114.2015)" /><g
     id="g27"
     transform="translate(0,114.2015)" /><g
     id="g29"
     transform="translate(0,114.2015)" /><g
     id="g31"
     transform="translate(0,114.2015)" /><g
     id="g33"
     transform="translate(0,114.2015)" /><g
     id="g35"
     transform="translate(0,114.2015)" /><g
     id="g37"
     transform="translate(0,114.2015)" /><g
     id="g39"
     transform="translate(0,114.2015)" /><g
     id="g41"
     transform="translate(0,114.2015)" /><g
     id="g43"
     transform="translate(0,114.2015)" /><g
     id="g45"
     transform="translate(0,114.2015)" /><g
     id="g4183"
     transform="matrix(0.73729961,0,0,0.74278303,455.47961,241.35815)"><g
       style="fill:#000000;fill-opacity:1"
       transform="translate(-571.00759,0)"
       id="g3"><g
         style="fill:#000000;fill-opacity:1"
         id="g5"><g
           id="g3363"><ellipse
             ry="349.55984"
             rx="366.77136"
             cy="93.56337"
             cx="408.14264"
             id="path4181"
             style="opacity:1;fill:#ffb85b;fill-opacity:1;fill-rule:evenodd;stroke:#ffffff;stroke-width:0;stroke-miterlimit:4;stroke-dasharray:none;stroke-opacity:1" /><g
             transform="matrix(0.82072933,0,0,0.73320007,199.464,-92.860447)"
             id="g7"
             style="fill:#ffffff;fill-opacity:1"><g
               id="g9"
               style="fill:#ffffff;fill-opacity:1"><path
                 d="m 476.737,111.239 -127.13,0 0,-31.783 c 0,-17.544 -14.239,-31.782 -31.783,-31.782 l -127.13,0 c -17.544,0 -31.782,14.239 -31.782,31.782 l 0,31.782 -127.13,0 C 14.239,111.239 0,125.477 0,143.021 l 0,63.565 508.52,0 0,-63.565 c 0,-17.544 -14.239,-31.782 -31.783,-31.782 z m -158.912,0 -127.13,0 0,-31.783 127.13,0 0,31.783 z"
                 id="path11"
                 inkscape:connector-curvature="0"
                 style="fill:#ffffff;fill-opacity:1" /><rect
                 x="190.69501"
                 y="238.369"
                 width="127.13"
                 height="31.782"
                 id="rect13"
                 style="fill:#ffffff;fill-opacity:1" /><path
                 d="m 349.607,270.151 c 0,17.544 -14.239,31.782 -31.783,31.782 l -127.13,0 c -17.544,0 -31.782,-14.239 -31.782,-31.782 l 0,-31.782 -158.912,0 0,190.695 c 0,17.544 14.239,31.783 31.782,31.783 l 444.955,0 c 17.544,0 31.782,-14.239 31.782,-31.783 l 0,-190.695 -158.912,0 0,31.782 z"
                 id="path15"
                 inkscape:connector-curvature="0"
                 style="fill:#ffffff;fill-opacity:1" /></g></g></g></g></g></g></svg>