<?xml version="1.0" encoding="UTF-8" standalone="no"?>
<!-- Generator: Adobe Illustrator 16.0.0, SVG Export Plug-In . SVG Version: 6.00 Build 0)  -->

<svg
   xmlns:osb="http://www.openswatchbook.org/uri/2009/osb"
   xmlns:dc="http://purl.org/dc/elements/1.1/"
   xmlns:cc="http://creativecommons.org/ns#"
   xmlns:rdf="http://www.w3.org/1999/02/22-rdf-syntax-ns#"
   xmlns:svg="http://www.w3.org/2000/svg"
   xmlns="http://www.w3.org/2000/svg"
   xmlns:xlink="http://www.w3.org/1999/xlink"
   xmlns:sodipodi="http://sodipodi.sourceforge.net/DTD/sodipodi-0.dtd"
   xmlns:inkscape="http://www.inkscape.org/namespaces/inkscape"
   version="1.1"
   id="Capa_1"
   x="0px"
   y="0px"
   width="671.63385"
   height="626.98303"
   viewBox="0 0 623.208 581.7778"
   xml:space="preserve"
   inkscape:version="0.91 r13725"
   sodipodi:docname="trends.svg"><metadata
     id="metadata41"><rdf:RDF><cc:Work
         rdf:about=""><dc:format>image/svg+xml</dc:format><dc:type
           rdf:resource="http://purl.org/dc/dcmitype/StillImage" /><dc:title /></cc:Work></rdf:RDF></metadata><defs
     id="defs39"><pattern
       inkscape:collect="always"
       xlink:href="#Strips1_1"
       id="pattern6093"
       patternTransform="matrix(14.425288,0,0,13.771428,-23.821069,-12.676592)" /><linearGradient
       id="linearGradient6085"
       osb:paint="solid"><stop
         style="stop-color:#000000;stop-opacity:1;"
         offset="0"
         id="stop6087" /></linearGradient><pattern
       inkscape:isstock="true"
       inkscape:stockid="Stripes 1:1"
       id="Strips1_1"
       patternTransform="translate(0,0) scale(10,10)"
       height="1"
       width="2"
       patternUnits="userSpaceOnUse"
       inkscape:collect="always"><rect
         id="rect4890"
         height="2"
         width="1"
         y="-0.5"
         x="0"
         style="fill:black;stroke:none" /></pattern></defs><sodipodi:namedview
     pagecolor="#ffffff"
     bordercolor="#666666"
     borderopacity="1"
     objecttolerance="10"
     gridtolerance="10"
     guidetolerance="10"
     inkscape:pageopacity="0"
     inkscape:pageshadow="2"
     inkscape:window-width="1168"
     inkscape:window-height="959"
     id="namedview37"
     showgrid="false"
     showguides="true"
     inkscape:zoom="0.4609375"
     inkscape:cx="141.01705"
     inkscape:cy="404.92668"
     inkscape:window-x="753"
     inkscape:window-y="18"
     inkscape:window-maximized="0"
     inkscape:current-layer="Capa_1"
     fit-margin-top="0"
     fit-margin-left="0"
     fit-margin-right="5.6"
     fit-margin-bottom="0"
     borderlayer="false"><inkscape:grid
       type="xygrid"
       id="grid6091"
       originx="-56.36581"
       originy="152.99344" /></sodipodi:namedview><g
     id="g7"
     transform="translate(-56.365926,-46.300645)" /><g
     id="g9"
     transform="translate(-56.365926,-46.300645)" /><g
     id="g11"
     transform="translate(-56.365926,-46.300645)" /><g
     id="g13"
     transform="translate(-56.365926,-46.300645)" /><g
     id="g15"
     transform="translate(-56.365926,-46.300645)" /><g
     id="g17"
     transform="translate(-56.365926,-46.300645)" /><g
     id="g19"
     transform="translate(-56.365926,-46.300645)" /><g
     id="g21"
     transform="translate(-56.365926,-46.300645)" /><g
     id="g23"
     transform="translate(-56.365926,-46.300645)" /><g
     id="g25"
     transform="translate(-56.365926,-46.300645)" /><g
     id="g27"
     transform="translate(-56.365926,-46.300645)" /><g
     id="g29"
     transform="translate(-56.365926,-46.300645)" /><g
     id="g31"
     transform="translate(-56.365926,-46.300645)" /><g
     id="g33"
     transform="translate(-56.365926,-46.300645)" /><g
     id="g35"
     transform="translate(-56.365926,-46.300645)" /><ellipse
     style="opacity:1;fill:#ff7e5b;fill-opacity:1;fill-rule:evenodd;stroke:url(#pattern6093);stroke-width:0;stroke-miterlimit:4;stroke-dasharray:none;stroke-opacity:1"
     id="path6076"
     cx="313.03232"
     cy="290.88889"
     rx="252.64053"
     ry="242.57516" /><path
     style="fill:#ffffff;fill-opacity:1;stroke:#000000;stroke-width:0;stroke-miterlimit:4;stroke-dasharray:none;stroke-opacity:1"
     inkscape:connector-curvature="0"
     id="path5"
     d="m 367.02027,236.98928 c -1.2338,-1.36707 -2.63639,-2.05084 -4.20036,-2.0542 -0.33319,0 -0.82311,0.0926 -1.4852,0.2741 l -48.92656,13.40649 21.12588,-63.34008 c 0.41153,-0.91184 0.61927,-1.7317 0.61927,-2.46242 0,-1.54962 -0.53749,-2.89414 -1.60681,-4.03454 -1.07065,-1.14186 -2.38884,-1.7111 -3.9528,-1.7111 l -40.52546,0 c -1.31774,0 -2.47017,0.40969 -3.45943,1.23047 -0.98842,0.82179 -1.64839,1.87115 -1.97683,3.14668 l -24.83415,112.86497 c -0.41241,2.18689 0.12292,3.96603 1.60596,5.33549 1.07019,1.00575 2.34597,1.50409 3.82903,1.50409 0.65951,0 1.15371,-0.0427 1.48305,-0.13464 l 50.1625,-13.81812 -24.33995,110.5386 c -0.32888,1.45905 -0.14412,2.82659 0.55695,4.1026 0.70063,1.27889 1.75139,2.14474 3.1509,2.60042 0.82355,0.18063 1.4017,0.27216 1.7306,0.27216 2.3888,0 4.11724,-1.13801 5.18916,-3.41932 l 66.71887,-158.28291 c 0.90661,-2.18832 0.62058,-4.19554 -0.86462,-6.01874 z" /></svg>