<?xml version="1.0" encoding="UTF-8" standalone="no"?>
<!-- Generator: Adobe Illustrator 19.0.0, SVG Export Plug-In . SVG Version: 6.00 Build 0)  -->

<svg
   xmlns:dc="http://purl.org/dc/elements/1.1/"
   xmlns:cc="http://creativecommons.org/ns#"
   xmlns:rdf="http://www.w3.org/1999/02/22-rdf-syntax-ns#"
   xmlns:svg="http://www.w3.org/2000/svg"
   xmlns="http://www.w3.org/2000/svg"
   xmlns:sodipodi="http://sodipodi.sourceforge.net/DTD/sodipodi-0.dtd"
   xmlns:inkscape="http://www.inkscape.org/namespaces/inkscape"
   version="1.1"
   id="Layer_1"
   x="0px"
   y="0px"
   viewBox="0 0 614.55098 637.52305"
   xml:space="preserve"
   inkscape:version="0.91 r13725"
   sodipodi:docname="devices.svg"
   width="614.55096"
   height="637.52301"><metadata
     id="metadata83"><rdf:RDF><cc:Work
         rdf:about=""><dc:format>image/svg+xml</dc:format><dc:type
           rdf:resource="http://purl.org/dc/dcmitype/StillImage" /><dc:title></dc:title></cc:Work></rdf:RDF></metadata><defs
     id="defs81" /><sodipodi:namedview
     pagecolor="#ffffff"
     bordercolor="#666666"
     borderopacity="1"
     objecttolerance="10"
     gridtolerance="10"
     guidetolerance="10"
     inkscape:pageopacity="0"
     inkscape:pageshadow="2"
     inkscape:window-width="1920"
     inkscape:window-height="1017"
     id="namedview79"
     showgrid="false"
     borderlayer="true"
     fit-margin-top="0"
     fit-margin-left="0"
     fit-margin-right="0"
     fit-margin-bottom="0"
     inkscape:zoom="0.52636276"
     inkscape:cx="694.88044"
     inkscape:cy="460.12478"
     inkscape:window-x="-8"
     inkscape:window-y="-8"
     inkscape:window-maximized="1"
     inkscape:current-layer="Layer_1" /><g
     id="g49"
     transform="translate(1391.1761,-249.20432)" /><g
     id="g51"
     transform="translate(1391.1761,-249.20432)" /><g
     id="g53"
     transform="translate(1391.1761,-249.20432)" /><g
     id="g55"
     transform="translate(1391.1761,-249.20432)" /><g
     id="g57"
     transform="translate(1391.1761,-249.20432)" /><g
     id="g59"
     transform="translate(1391.1761,-249.20432)" /><g
     id="g61"
     transform="translate(1391.1761,-249.20432)" /><g
     id="g63"
     transform="translate(1391.1761,-249.20432)" /><g
     id="g65"
     transform="translate(1391.1761,-249.20432)" /><g
     id="g67"
     transform="translate(1391.1761,-249.20432)" /><g
     id="g69"
     transform="translate(1391.1761,-249.20432)" /><g
     id="g71"
     transform="translate(1391.1761,-249.20432)" /><g
     id="g73"
     transform="translate(1391.1761,-249.20432)" /><g
     id="g75"
     transform="translate(1391.1761,-249.20432)" /><g
     id="g77"
     transform="translate(1391.1761,-249.20432)" /><g
     id="g4174"
     transform="translate(1054.9061,-483.78992)"><ellipse
       ry="318.53195"
       rx="307.04593"
       cy="802.55145"
       cx="-747.63062"
       id="path4170"
       style="opacity:1;fill:#dddddd;fill-opacity:1;stroke:#000000;stroke-width:0.45916396;stroke-opacity:0" /><g
       transform="matrix(0.962845,0,0,0.96020646,-963.48121,587.29237)"
       id="g3"><polygon
         id="polygon5"
         points="125.22,334.46 90.02,334.46 90.02,349.46 160.46,349.46 160.46,341.96 160.46,334.46 "
         style="fill:#b3b3b3" /><polygon
         id="polygon7"
         points="160.46,299.76 160.46,334.46 125.22,334.46 132.95,299.76 "
         style="fill:#666666" /><rect
         id="rect9"
         height="15"
         width="12.495"
         style="fill:#808080"
         y="334.45999"
         x="147.965" /><path
         inkscape:connector-curvature="0"
         id="path11"
         d="m 448.36,384.03 c 0,6.59 -2.52,12.59 -6.63,17.09 -4.64,5.07 -11.3,8.25 -18.71,8.25 l -255.58,0 c -7,0 -13.33,-2.84 -17.91,-7.42 -4.59,-4.58 -7.42,-10.92 -7.42,-17.92 l 306.25,0 0,0 z"
         style="fill:#71b7ea" /><path
         inkscape:connector-curvature="0"
         id="path13"
         d="m 417.67,217.84 -244.87,0 c -6.82,0 -12.34,5.53 -12.34,12.35 l 0,153.84 269.55,0 0,-153.84 c 0,-6.82 -5.53,-12.35 -12.34,-12.35 z m -10.66,143.19 -223.55,0 0,-120.19 223.55,0 0,120.19 z"
         style="fill:#88c5fc" /><path
         inkscape:connector-curvature="0"
         id="path15"
         d="m 160.46,264.99 0,34.77 -143.26,0 C 7.7,299.76 0,292.06 0,282.56 l 0,-17.57 160.46,0 0,0 z"
         style="fill:#b3b3b3" /><polygon
         id="polygon17"
         points="348.08,64.99 348.08,146.99 260.08,146.99 260.08,88.99 260.08,64.99 "
         style="fill:#f9a18a" /><rect
         id="rect19"
         height="120.19"
         width="223.55"
         style="fill:#e6e6e6"
         y="240.84"
         x="183.46001" /><path
         inkscape:connector-curvature="0"
         id="path21"
         d="m 304.08,174.99 0,42.85 -131.28,0 c -5.66,0 -10.42,3.81 -11.88,9 -0.3,1.06 -0.46,2.19 -0.46,3.35 l 0,34.8 -160.46,0 0,-158.8 c 0,-9.5 7.7,-17.2 17.2,-17.2 l 242.88,0 0,70.76 c 0,8.42 6.82,15.24 15.24,15.24 l 28.76,0 z"
         style="fill:#afdaf9" /><polygon
         id="polygon23"
         points="160.46,349.46 160.46,341.96 160.46,334.46 " /><path
         inkscape:connector-curvature="0"
         id="path25"
         d="m 342.35,42.33 c -2.61,-2.09 -5.92,-3.34 -9.52,-3.34 l -57.51,0 c -8.42,0 -15.24,6.83 -15.24,15.25 l 0,105.51 c 0,7.77 5.8,14.17 13.31,15.11 0.63,0.09 1.28,0.13 1.93,0.13 l 57.51,0 c 8.42,0 15.25,-6.82 15.25,-15.24 l 0,-105.51 c 0,-4.82 -2.24,-9.12 -5.73,-11.91 z m 0.63,104.66 -77.8,0 0,-82 77.8,0 0,82 0,0 z"
         style="fill:#666666" /><g
         id="g27"><polygon
           id="polygon29"
           points="153.73,264.99 160.46,252.05 160.46,299.76 135.63,299.76 "
           style="opacity:0.23000004;fill:#f2f2f2;enable-background:new" /><path
           inkscape:connector-curvature="0"
           id="path31"
           d="m 304.08,174.99 0,42.85 -125.82,0 67.06,-128.85 14.76,0 0,70.76 c 0,8.42 6.82,15.24 15.24,15.24 l 28.76,0 z"
           style="opacity:0.3;fill:#f2f2f2;enable-background:new" /><path
           inkscape:connector-curvature="0"
           id="path33"
           d="M 72.69,88.99 59.85,113.65 51.31,130.08 32.55,166.11 23.6,183.32 6.31,216.55 0,228.67 0,106.19 c 0,-9.5 7.7,-17.2 17.2,-17.2 0,0 55.49,0 55.49,0 z"
           style="opacity:0.3;fill:#f2f2f2;enable-background:new" /></g><path
         inkscape:connector-curvature="0"
         id="path35"
         d="m 430.01,230.19 0,153.84 -139.56,0 11.97,-23 62.54,-120.19 11.97,-23 40.74,0 c 6.81,0 12.34,5.53 12.34,12.35 z"
         style="opacity:0.23000004;fill:#f2f2f2;enable-background:new" /><path
         inkscape:connector-curvature="0"
         id="path37"
         d="m 348.08,54.24 0,105.51 c 0,8.42 -6.83,15.24 -15.25,15.24 l -57.51,0 c -0.65,0 -1.3,-0.04 -1.93,-0.13 l 3.03,-5.83 11.47,-22.04 42.67,-82 8.4,-16.15 3.39,-6.51 c 3.49,2.79 5.73,7.09 5.73,11.91 z"
         style="opacity:0.23000004;fill:#f2f2f2;enable-background:new" /><polygon
         id="polygon39"
         points="196.45,384.03 208.42,361.03 270.96,240.84 282.93,217.84 317.93,217.84 305.96,240.84 243.42,361.03 231.45,384.03 "
         style="opacity:0.23000004;fill:#f2f2f2;enable-background:new" /><g
         id="g41"><path
           inkscape:connector-curvature="0"
           id="path43"
           d="m 448.36,384.03 c 0,6.59 -2.52,12.59 -6.63,17.09 l -70.65,0 8.89,-17.09 68.39,0 z"
           style="opacity:0.23000004;fill:#f2f2f2;enable-background:new" /></g><path
         inkscape:connector-curvature="0"
         id="path45"
         d="m 275.32,174.99 c -8.42,0 -15.24,-6.82 -15.24,-15.24 l 0,-70.76 -5.9,0 -5.1,0 0,80.76 c 0,7.77 5.8,14.17 13.31,15.11 0.63,0.09 1.28,0.13 1.93,0.13 l 39.76,0 0,-10 -28.76,0 z"
         style="opacity:0.23999999;fill:#808080;enable-background:new" /><path
         inkscape:connector-curvature="0"
         id="path47"
         d="m 156.8,226.84 c -6.82,0 -12.34,5.53 -12.34,12.35 l 0,60.57 16,0 0,-69.57 c 0,-1.16 0.16,-2.29 0.46,-3.35 l -4.12,0 z"
         style="opacity:0.23999999;fill:#808080;enable-background:new" /></g></g></svg>