<?xml version="1.0" encoding="UTF-8" standalone="no"?>
<!-- Generator: Adobe Illustrator 19.0.0, SVG Export Plug-In . SVG Version: 6.00 Build 0)  -->

<svg
   xmlns:dc="http://purl.org/dc/elements/1.1/"
   xmlns:cc="http://creativecommons.org/ns#"
   xmlns:rdf="http://www.w3.org/1999/02/22-rdf-syntax-ns#"
   xmlns:svg="http://www.w3.org/2000/svg"
   xmlns="http://www.w3.org/2000/svg"
   xmlns:sodipodi="http://sodipodi.sourceforge.net/DTD/sodipodi-0.dtd"
   xmlns:inkscape="http://www.inkscape.org/namespaces/inkscape"
   version="1.1"
   id="Layer_1"
   x="0px"
   y="0px"
   viewBox="0 0 350.00001 350.00001"
   xml:space="preserve"
   inkscape:version="0.91 r13725"
   sodipodi:docname="layer.svg"
   width="350"
   height="350"><metadata
     id="metadata49"><rdf:RDF><cc:Work
         rdf:about=""><dc:format>image/svg+xml</dc:format><dc:type
           rdf:resource="http://purl.org/dc/dcmitype/StillImage" /><dc:title></dc:title></cc:Work></rdf:RDF></metadata><defs
     id="defs47" /><sodipodi:namedview
     pagecolor="#ffffff"
     bordercolor="#666666"
     borderopacity="1"
     objecttolerance="10"
     gridtolerance="10"
     guidetolerance="10"
     inkscape:pageopacity="0"
     inkscape:pageshadow="2"
     inkscape:window-width="640"
     inkscape:window-height="480"
     id="namedview45"
     showgrid="false"
     inkscape:showpageshadow="true"
     inkscape:zoom="0.58044445"
     inkscape:cx="203.2925"
     inkscape:cy="203.2925"
     inkscape:window-x="1020"
     inkscape:window-y="134"
     inkscape:window-maximized="0"
     inkscape:current-layer="Layer_1" /><g
     id="g3"
     transform="matrix(0.8654806,0,0,0.74152543,0.64311054,24.387445)"><polygon
       style="fill:#f7e88b"
       points="203.292,406.585 17.588,289.939 203.292,173.292 388.997,289.939 "
       id="polygon5" /><polygon
       style="fill:#f9a18a"
       points="203.292,319.935 17.588,203.289 203.292,86.642 388.997,203.289 "
       id="polygon7" /><polygon
       style="fill:#88c5fc"
       points="17.588,116.64 203.298,0 229.537,16.48 297.078,58.9 388.997,116.64 203.298,233.29 145.077,196.72 77.548,154.3 "
       id="polygon9" /><polygon
       style="opacity:0.23000004;fill:#f2f2f2;enable-background:new"
       points="86.563,246.614 203.292,319.936 320.023,246.614 203.292,173.292 "
       id="polygon11" /><polygon
       style="opacity:0.23000004;fill:#f2f2f2;enable-background:new"
       points="86.559,159.966 203.292,233.291 320.027,159.966 203.292,86.642 "
       id="polygon13" /></g><g
     id="g15"
     transform="translate(0,-56.584991)" /><g
     id="g17"
     transform="translate(0,-56.584991)" /><g
     id="g19"
     transform="translate(0,-56.584991)" /><g
     id="g21"
     transform="translate(0,-56.584991)" /><g
     id="g23"
     transform="translate(0,-56.584991)" /><g
     id="g25"
     transform="translate(0,-56.584991)" /><g
     id="g27"
     transform="translate(0,-56.584991)" /><g
     id="g29"
     transform="translate(0,-56.584991)" /><g
     id="g31"
     transform="translate(0,-56.584991)" /><g
     id="g33"
     transform="translate(0,-56.584991)" /><g
     id="g35"
     transform="translate(0,-56.584991)" /><g
     id="g37"
     transform="translate(0,-56.584991)" /><g
     id="g39"
     transform="translate(0,-56.584991)" /><g
     id="g41"
     transform="translate(0,-56.584991)" /><g
     id="g43"
     transform="translate(0,-56.584991)" /></svg>