<?xml version="1.0" encoding="UTF-8" standalone="no"?>
<!-- Generator: Adobe Illustrator 19.0.0, SVG Export Plug-In . SVG Version: 6.00 Build 0)  -->

<svg
   xmlns:dc="http://purl.org/dc/elements/1.1/"
   xmlns:cc="http://creativecommons.org/ns#"
   xmlns:rdf="http://www.w3.org/1999/02/22-rdf-syntax-ns#"
   xmlns:svg="http://www.w3.org/2000/svg"
   xmlns="http://www.w3.org/2000/svg"
   xmlns:sodipodi="http://sodipodi.sourceforge.net/DTD/sodipodi-0.dtd"
   xmlns:inkscape="http://www.inkscape.org/namespaces/inkscape"
   version="1.1"
   id="Layer_1"
   x="0px"
   y="0px"
   viewBox="0 0 403.337 403.337"
   style="enable-background:new 0 0 403.337 403.337;"
   xml:space="preserve"
   inkscape:version="0.91 r13725"
   sodipodi:docname="settings.svg"><metadata
     id="metadata73"><rdf:RDF><cc:Work
         rdf:about=""><dc:format>image/svg+xml</dc:format><dc:type
           rdf:resource="http://purl.org/dc/dcmitype/StillImage" /></cc:Work></rdf:RDF></metadata><defs
     id="defs71" /><sodipodi:namedview
     pagecolor="#ffffff"
     bordercolor="#666666"
     borderopacity="1"
     objecttolerance="10"
     gridtolerance="10"
     guidetolerance="10"
     inkscape:pageopacity="0"
     inkscape:pageshadow="2"
     inkscape:window-width="640"
     inkscape:window-height="480"
     id="namedview69"
     showgrid="false"
     inkscape:zoom="0.58511864"
     inkscape:cx="201.6685"
     inkscape:cy="201.6685"
     inkscape:window-x="0"
     inkscape:window-y="0"
     inkscape:window-maximized="0"
     inkscape:current-layer="Layer_1" /><g
     id="g3"
     transform="matrix(0.87711575,0,0,0.89406792,22.2183,22.217691)"><path
       style="fill:#666666"
       d="m 399.161,273.046 c 5.56,-24.47 5.56,-49.93 0.01,-74.41 l -26.09,0 c -3.14,-11.61 -7.75,-22.89 -13.88,-33.55 l 18.44,-18.44 c -6.53,-10.4 -14.32,-20.2 -23.37,-29.25 -5.09,-5.09 -10.42,-9.79 -15.96,-14.08 -4.31,-3.33 -8.73,-6.43 -13.28,-9.29 l -18.45,18.44 c -5.05,-2.9 -10.23,-5.46 -15.52,-7.69 -5.88,-2.47 -11.91,-4.53 -18.02,-6.18 l 0,-26.09 c -14.89,-3.39 -30.17,-4.71 -45.36,-3.97 -9.76,0.47 -19.48,1.8 -29.04,3.98 l 0,26.08 c -3.39,0.91 -6.76,1.95 -10.08,3.13 -8.07,2.83 -15.93,6.41 -23.48,10.74 l -18.44,-18.44 c -10.39,6.54 -20.2,14.32 -29.24,23.37 -9.05,9.05 -16.84,18.85 -23.37,29.25 l 18.44,18.44 c -4.34,7.55 -7.92,15.41 -10.75,23.48 -1.17,3.32 -2.21,6.69 -3.13,10.07 l -26.07,0 c -2.18,9.57 -3.51,19.28 -3.98,29.04 -0.74,15.19 0.58,30.47 3.97,45.37 l 26.08,0 c 3.14,11.6 7.76,22.88 13.88,33.54 l -18.44,18.44 c 6.53,10.4 14.32,20.2 23.37,29.25 2.31,2.31 4.67,4.53 7.07,6.68 7.02,6.26 14.43,11.82 22.17,16.69 l 5.05,-5.05 13.39,-13.39 c 9.68,5.55 19.86,9.87 30.34,12.96 1.07,0.32 2.14,0.62 3.22,0.91 l 0,26.1 c 24.47,5.55 49.94,5.55 74.4,-0.01 l 0,-26.09 c 11.61,-3.13 22.89,-7.75 33.54,-13.87 l 18.45,18.44 c 10.39,-6.54 20.2,-14.32 29.24,-23.37 9.05,-9.05 16.84,-18.85 23.37,-29.25 l -18.44,-18.44 c 6.12,-10.66 10.74,-21.94 13.87,-33.54 l 26.09,0 z m -102.25,23.87 c -20.4,20.4 -48.46,28.46 -74.92,24.19 -12.67,-2.04 -24.97,-6.92 -35.89,-14.63 -3.98,-2.81 -7.78,-6 -11.34,-9.56 -3.93,-3.93 -7.41,-8.14 -10.42,-12.58 -22.86,-33.61 -19.39,-79.78 10.42,-109.58 16.54,-16.53 38.1,-24.97 59.77,-25.29 10.37,-0.15 20.75,1.55 30.62,5.1 11.6,4.17 22.47,10.9 31.76,20.19 0.28,0.28 0.55,0.55 0.81,0.83 32.93,33.79 32.65,87.88 -0.81,121.33 z"
       id="path5"
       inkscape:connector-curvature="0" /><path
       style="fill:#999999"
       d="m 188.561,101.726 c -8.07,2.83 -15.93,6.41 -23.48,10.74 l -18.44,-18.44 c -10.39,6.54 -20.2,14.32 -29.24,23.37 -9.05,9.05 -16.84,18.85 -23.37,29.25 l 18.44,18.44 c -4.34,7.55 -7.92,15.41 -10.75,23.48 -7.4,-3.21 -14.34,-7.84 -20.39,-13.89 -25.78,-25.78 -25.78,-67.57 -0.01,-93.35 25.78,-25.78 67.57,-25.78 93.35,0 6.06,6.06 10.69,12.99 13.89,20.4 z"
       id="path7"
       inkscape:connector-curvature="0" /><path
       style="fill:#b3b3b3"
       d="m 236.371,59.836 -8.69,8.7 c -9.76,0.47 -19.48,1.8 -29.04,3.98 l 0,26.08 c -3.39,0.91 -6.76,1.95 -10.08,3.13 -3.2,-7.41 -7.83,-14.34 -13.89,-20.4 -22.09,-22.09 -55.95,-25.25 -81.4,-9.48 -4.25,2.64 -8.26,5.79 -11.95,9.48 -13.83,13.84 -20.24,32.29 -19.22,50.41 0.88,15.62 7.29,31 19.23,42.94 6.05,6.05 12.99,10.68 20.39,13.89 -1.17,3.32 -2.21,6.69 -3.13,10.07 l -26.07,0 c -2.18,9.57 -3.51,19.28 -3.98,29.04 l -8.7,8.69 c -7.94,-5 -15.43,-10.94 -22.34,-17.86 -4.71,-4.71 -8.97,-9.68 -12.79,-14.89 -1.79,-2.43 -3.48,-4.92 -5.08,-7.45 l 14.1,-14.1 c -4.68,-8.14 -8.21,-16.76 -10.6,-25.63 l -19.94,0 c -4.25,-18.7 -4.25,-38.18 0.01,-56.86 l 19.92,0 c 2.4,-8.87 5.93,-17.49 10.61,-25.64 l -14.1,-14.1 c 5,-7.94 10.95,-15.43 17.86,-22.34 6.91,-6.92 14.41,-12.87 22.35,-17.87 l 14.1,14.1 c 8.15,-4.68 16.77,-8.21 25.63,-10.6 l 0,-19.93 c 10.21,-2.33 20.66,-3.38 31.08,-3.17 8.66,0.18 17.3,1.24 25.78,3.17 l 0.01,19.93 c 8.86,2.4 17.48,5.93 25.63,10.6 l 14.09,-14.09 c 7.94,4.99 15.43,10.94 22.35,17.86 6.91,6.91 12.86,14.4 17.86,22.34 z"
       id="path9"
       inkscape:connector-curvature="0" /><path
       style="fill:#999999"
       d="m 296.911,174.756 c 33.74,33.73 33.74,88.43 0,122.16 -33.73,33.73 -88.42,33.73 -122.15,0 -33.74,-33.73 -33.74,-88.43 0,-122.16 33.73,-33.73 88.42,-33.73 122.15,0 z m -39.91,82.24 c 11.69,-11.69 11.69,-30.64 0,-42.32 -11.69,-11.69 -30.64,-11.69 -42.33,0 -11.69,11.68 -11.69,30.63 0,42.32 11.69,11.69 30.64,11.69 42.33,0 z"
       id="path11"
       inkscape:connector-curvature="0" /><path
       style="fill:#666666"
       d="m 235.836,306.214 c -18.798,0 -36.47,-7.32 -49.762,-20.611 -13.296,-13.292 -20.618,-30.966 -20.618,-49.766 0,-18.8 7.322,-36.474 20.617,-49.765 13.293,-13.293 30.965,-20.613 49.763,-20.613 18.798,0 36.47,7.32 49.762,20.611 13.297,13.292 20.618,30.966 20.619,49.766 -10e-4,18.8 -7.322,36.474 -20.617,49.765 -13.294,13.293 -30.966,20.613 -49.764,20.613 z m 0,-116.305 c -12.269,0 -23.803,4.778 -32.479,13.455 -8.674,8.666 -13.454,20.199 -13.454,32.47 0,12.268 4.778,23.802 13.454,32.478 8.676,8.676 20.21,13.454 32.479,13.454 12.269,0 23.803,-4.778 32.479,-13.454 8.676,-8.676 13.454,-20.21 13.454,-32.478 0,-12.271 -4.78,-23.803 -13.459,-32.475 -8.671,-8.672 -20.205,-13.45 -32.474,-13.45 z"
       id="path13"
       inkscape:connector-curvature="0" /><g
       style="opacity:0.23000004"
       id="g15"><path
         style="fill:#808080"
         d="m 82.947,183.465 -26.07,0 c -2.18,9.57 -3.51,19.28 -3.98,29.04 -0.313,6.425 -0.235,12.865 0.19,19.287 2.214,1.601 4.463,3.131 6.754,4.574 l 8.7,-8.69 c 0.47,-9.76 1.8,-19.47 3.98,-29.04 l 26.07,0 c 0.92,-3.38 1.96,-6.75 3.13,-10.07 -6.089,-2.641 -11.857,-6.26 -17.083,-10.824 -0.6,1.901 -1.17,3.809 -1.691,5.723 z"
         id="path17"
         inkscape:connector-curvature="0" /><path
         style="fill:#808080"
         d="m 188.561,101.726 c 3.32,-1.18 6.69,-2.22 10.08,-3.13 l 0,-26.08 c 9.56,-2.18 19.28,-3.51 29.04,-3.98 l 8.69,-8.7 c -1.327,-2.107 -2.725,-4.18 -4.186,-6.221 -6.707,-0.479 -13.436,-0.578 -20.149,-0.251 -9.76,0.47 -19.48,1.8 -29.04,3.98 l 0,26.08 c -1.687,0.453 -3.369,0.938 -5.043,1.457 4.469,5.166 8.016,10.843 10.608,16.845 z"
         id="path19"
         inkscape:connector-curvature="0" /></g><g
       id="g21"><path
         style="fill:#808080"
         d="M 146.354,94.213 130.996,78.855 c -10.39,6.54 -20.2,14.32 -29.24,23.37 -9.05,9.05 -16.84,18.85 -23.37,29.25 l 18.44,18.44 c -4.34,7.55 -7.92,15.41 -10.75,23.48 -0.507,1.44 -0.979,2.892 -1.439,4.348 5.227,4.564 10.995,8.183 17.083,10.824 2.83,-8.07 6.41,-15.93 10.75,-23.48 l -18.44,-18.44 c 6.53,-10.4 14.32,-20.2 23.37,-29.25 8.957,-8.967 18.671,-16.682 28.954,-23.184 z"
         id="path23"
         inkscape:connector-curvature="0" /><path
         style="fill:#808080"
         d="m 172.917,86.555 c -7.962,2.792 -15.719,6.318 -23.177,10.571 l 15.341,15.341 c 7.55,-4.33 15.41,-7.91 23.48,-10.74 -2.592,-6.002 -6.139,-11.68 -10.607,-16.845 -1.689,0.523 -3.37,1.08 -5.037,1.673 z"
         id="path25"
         inkscape:connector-curvature="0" /></g><g
       id="g27"><path
         style="opacity:0.23000004;fill:#f2f2f2;enable-background:new"
         d="m 373.071,273.046 c -3.13,11.6 -7.75,22.88 -13.87,33.54 l 18.44,18.44 c -6.53,10.4 -14.32,20.2 -23.37,29.25 -9.04,9.05 -18.85,16.83 -29.24,23.37 l -18.45,-18.44 c -10.65,6.12 -21.93,10.74 -33.54,13.87 l 0,26.09 c -24.46,5.56 -49.93,5.56 -74.4,0.01 l 0,-26.1 c -1.08,-0.29 -2.15,-0.59 -3.22,-0.91 l 26.57,-51.06 75.73,-145.52 37.6,-72.27 2.99,0 c 5.54,4.29 10.87,8.99 15.96,14.08 9.05,9.05 16.84,18.85 23.37,29.25 l -18.44,18.44 c 6.13,10.66 10.74,21.94 13.88,33.55 l 26.09,0 c 5.55,24.48 5.55,49.94 -0.01,74.41 l -26.09,0 0,0 z"
         id="path29"
         inkscape:connector-curvature="0" /></g><g
       id="g31"><path
         style="opacity:0.23000004;fill:#f2f2f2;enable-background:new"
         d="m 130.651,0.026 -2.88,5.53 -34.5,66.29 -31.17,59.89 -10.06,19.34 -27.33,52.54 c -1.79,-2.43 -3.48,-4.92 -5.08,-7.45 l 14.1,-14.1 c -4.68,-8.14 -8.21,-16.76 -10.6,-25.63 l -19.94,0 c -4.25,-18.7 -4.25,-38.18 0.01,-56.86 l 19.92,0 c 2.4,-8.87 5.93,-17.49 10.61,-25.64 l -14.1,-14.1 c 5,-7.94 10.95,-15.43 17.86,-22.34 6.91,-6.92 14.41,-12.87 22.35,-17.87 l 14.1,14.1 c 8.15,-4.68 16.77,-8.21 25.63,-10.6 l 0,-19.93 c 10.21,-2.33 20.66,-3.38 31.08,-3.17 z"
         id="path33"
         inkscape:connector-curvature="0" /></g><g
       id="g35"><path
         style="opacity:0.23000004;fill:#f2f2f2;enable-background:new"
         d="m 291.061,104.776 -24.64,47.36 -1.27,2.43 -79.05,151.91 -17.34,33.32 -17.07,32.8 -5.05,5.05 c -7.74,-4.87 -15.15,-10.43 -22.17,-16.69 l 26.78,-51.46 13.09,-25.16 70.19,-134.87 7.71,-14.81 30.8,-59.2 0,23.14 c 6.11,1.65 12.14,3.711 18.02,6.18 z"
         id="path37"
         inkscape:connector-curvature="0" /></g></g><g
     id="g39" /><g
     id="g41" /><g
     id="g43" /><g
     id="g45" /><g
     id="g47" /><g
     id="g49" /><g
     id="g51" /><g
     id="g53" /><g
     id="g55" /><g
     id="g57" /><g
     id="g59" /><g
     id="g61" /><g
     id="g63" /><g
     id="g65" /><g
     id="g67" /></svg>